<?xml version="1.0" encoding="iso-8859-1"?>
<!-- Generator: Adobe Illustrator 19.0.0, SVG Export Plug-In . SVG Version: 6.00 Build 0)  -->
<svg version="1.1" id="Capa_1" xmlns="http://www.w3.org/2000/svg" xmlns:xlink="http://www.w3.org/1999/xlink" x="0px" y="0px"
	 viewBox="0 0 512 512" style="enable-background:new 0 0 512 512;" xml:space="preserve">
<g>
	<g>
		<g>
			<path d="M32.687,66.679l7.734-5.993v59.081c0,11.024,8.937,19.961,19.961,19.961s19.961-8.937,19.961-19.961V19.961
				c0-7.617-4.336-14.572-11.175-17.923c-6.841-3.353-14.993-2.52-21.013,2.146L8.233,35.123C-0.48,41.876-2.07,54.415,4.683,63.129
				C11.435,71.841,23.972,73.432,32.687,66.679z"/>
			<path d="M182.144,89.824H491.54c11.024,0,19.961-8.937,19.961-19.961c0-11.024-8.937-19.961-19.961-19.961H182.144
				c-11.024,0-19.961,8.937-19.961,19.961C162.183,80.888,171.12,89.824,182.144,89.824z"/>
			<path d="M51.111,361.294c-0.12,0-0.236,0.016-0.354,0.018c-0.12-0.002-0.235-0.018-0.354-0.018
				c-17.571,0-34.026,8.99-42.943,23.462c-5.783,9.386-2.862,21.683,6.523,27.465c3.265,2.011,6.88,2.97,10.453,2.97
				c6.698,0,13.242-3.371,17.013-9.492c1.678-2.724,5.193-4.483,8.956-4.483c0.12,0,0.236-0.016,0.354-0.018
				c0.12,0.002,0.235,0.018,0.354,0.018c5.409,0,9.981,4.571,9.981,9.98c0,1.548-4.313,5.896-8.557,8.056l0.18-0.088l0.006,0.016
				c-4.439,2.139-8.107,5.898-9.997,10.867c-3.92,10.303,1.254,21.834,11.557,25.755c2.103,0.8,6.347,3.785,6.81,5.298
				c0,5.409-4.571,9.981-9.981,9.981c-1.289,0-2.546,0.133-3.767,0.366c-2.315-0.887-4.542-2.648-5.898-4.85
				c-5.784-9.385-18.08-12.307-27.465-6.523c-9.386,5.783-12.306,18.08-6.523,27.465C16.754,502.627,33.209,512,50.402,512
				c2.659,0,5.19-0.53,7.51-1.473c24.31-3.328,43.102-24.219,43.102-49.427c0-9.89-3.517-18.106-8.491-24.67
				c4.821-6.612,8.491-14.997,8.491-25.233C101.014,383.68,78.627,361.294,51.111,361.294z"/>
			<path d="M491.54,235.54H182.144c-11.024,0-19.961,8.937-19.961,19.961c0,11.024,8.937,19.961,19.961,19.961H491.54
				c11.024,0,19.961-8.937,19.961-19.961C511.501,244.476,502.564,235.54,491.54,235.54z"/>
			<path d="M491.54,416.187H182.144c-11.024,0-19.961,8.937-19.961,19.961c0,11.024,8.937,19.961,19.961,19.961H491.54
				c11.024,0,19.961-8.937,19.961-19.961C511.501,425.124,502.564,416.187,491.54,416.187z"/>
			<path d="M82.339,286.44H68.042c29.158-33.052,32.972-49.346,32.972-59.883c0-27.516-22.386-49.903-49.903-49.903
				c-0.12,0-0.236,0.016-0.354,0.018c-0.12-0.002-0.235-0.018-0.354-0.018c-27.516,0-49.903,22.386-49.903,49.903
				c0,11.024,8.937,19.961,19.961,19.961s19.961-8.937,19.961-19.961c0-5.409,4.571-9.98,9.981-9.98c0.12,0,0.236-0.016,0.354-0.018
				c0.12,0.002,0.235,0.018,0.354,0.018c5.341,0,9.862,4.453,9.979,9.771c-0.195,1.027-2.653,11.309-26.14,37.209
				c-13.913,15.344-27.757,27.929-27.891,28.051c-6.116,5.541-8.192,14.275-5.223,21.975c2.969,7.7,10.371,12.779,18.624,12.779
				h61.879c11.024,0,19.961-8.937,19.961-19.961S93.364,286.44,82.339,286.44z"/>
		</g>
	</g>
</g>
<g>
</g>
<g>
</g>
<g>
</g>
<g>
</g>
<g>
</g>
<g>
</g>
<g>
</g>
<g>
</g>
<g>
</g>
<g>
</g>
<g>
</g>
<g>
</g>
<g>
</g>
<g>
</g>
<g>
</g>
</svg>
