<?xml version="1.0" encoding="iso-8859-1"?>
<!-- Generator: Adobe Illustrator 16.0.0, SVG Export Plug-In . SVG Version: 6.00 Build 0)  -->
<!DOCTYPE svg PUBLIC "-//W3C//DTD SVG 1.1//EN" "http://www.w3.org/Graphics/SVG/1.1/DTD/svg11.dtd">
<svg version="1.1" id="Capa_1" xmlns="http://www.w3.org/2000/svg" xmlns:xlink="http://www.w3.org/1999/xlink" x="0px" y="0px"
	 width="985px" height="985px" viewBox="0 0 985 985" style="enable-background:new 0 0 985 985;" xml:space="preserve">
<g>
	<path d="M70,201.55h845c38.7,0,70-31.3,70-70c0-38.7-31.3-70-70-70H70c-38.7,0-70,31.3-70,70C0,170.25,31.3,201.55,70,201.55z"/>
	<path d="M915,542.851H70c-38.7,0-70,31.299-70,70c0,38.699,31.3,70,70,70h845c38.7,0,70-31.301,70-70
		C985,574.149,953.7,542.851,915,542.851z"/>
	<path d="M915,302.15H219.6c-38.7,0-70,31.3-70,70s31.3,70,70,70H915c38.7,0,70-31.3,70-70S953.7,302.15,915,302.15z"/>
	<path d="M915,783.45H462.7c-38.7,0-70,31.299-70,70c0,38.699,31.3,70,70,70H915c38.7,0,70-31.301,70-70
		C985,814.749,953.7,783.45,915,783.45z"/>
</g>
<g>
</g>
<g>
</g>
<g>
</g>
<g>
</g>
<g>
</g>
<g>
</g>
<g>
</g>
<g>
</g>
<g>
</g>
<g>
</g>
<g>
</g>
<g>
</g>
<g>
</g>
<g>
</g>
<g>
</g>
</svg>
