<?xml version="1.0" encoding="iso-8859-1"?>
<!-- Generator: Adobe Illustrator 19.0.0, SVG Export Plug-In . SVG Version: 6.00 Build 0)  -->
<svg version="1.1" id="Capa_1" xmlns="http://www.w3.org/2000/svg" xmlns:xlink="http://www.w3.org/1999/xlink" x="0px" y="0px"
	 viewBox="0 0 512 512" style="enable-background:new 0 0 512 512;" xml:space="preserve">
<g>
	<g>
		<g>
			<path d="M59,394c-32.533,0-59,26.467-59,59c0,32.533,26.467,59,59,59c11.046,0,20-8.954,20-20c0-11.046-8.954-20-20-20
				c-10.477,0-19-8.523-19-19s8.523-19,19-19s19,8.523,19,19c0,11.046,8.954,20,20,20s20-8.954,20-20C118,420.467,91.533,394,59,394
				z"/>
			<path d="M182,79h310c11.046,0,20-8.954,20-20s-8.954-20-20-20H182c-11.046,0-20,8.954-20,20S170.954,79,182,79z"/>
			<path d="M59,197c-32.533,0-59,26.467-59,59c0,32.533,26.467,59,59,59c11.046,0,20-8.954,20-20c0-11.046-8.954-20-20-20
				c-10.477,0-19-8.523-19-19s8.523-19,19-19s19,8.523,19,19c0,11.046,8.954,20,20,20s20-8.954,20-20C118,223.467,91.533,197,59,197
				z"/>
			<path d="M492,236H182c-11.046,0-20,8.954-20,20s8.954,20,20,20h310c11.046,0,20-8.954,20-20C512,244.954,503.046,236,492,236z"/>
			<path d="M492,433H182c-11.046,0-20,8.954-20,20c0,11.046,8.954,20,20,20h310c11.046,0,20-8.954,20-20
				C512,441.954,503.046,433,492,433z"/>
			<path d="M59,0C26.467,0,0,26.467,0,59s26.467,59,59,59c11.046,0,20-8.954,20-20s-8.954-20-20-20c-10.477,0-19-8.523-19-19
				s8.523-19,19-19s19,8.523,19,19c0,11.046,8.954,20,20,20s20-8.954,20-20C118,26.467,91.533,0,59,0z"/>
		</g>
	</g>
</g>
<g>
</g>
<g>
</g>
<g>
</g>
<g>
</g>
<g>
</g>
<g>
</g>
<g>
</g>
<g>
</g>
<g>
</g>
<g>
</g>
<g>
</g>
<g>
</g>
<g>
</g>
<g>
</g>
<g>
</g>
</svg>
