<svg width="153" height="101" viewBox="0 0 153 101" fill="none" xmlns="http://www.w3.org/2000/svg">
<path d="M7.75781 96L6.75977 93.2246H2.93848L1.96094 96H0.238281L3.97754 85.9648H5.75488L9.49414 96H7.75781ZM6.3291 91.8164L5.39258 89.0957C5.32422 88.9134 5.22852 88.6263 5.10547 88.2344C4.98698 87.8424 4.90495 87.5553 4.85938 87.373C4.73633 87.9336 4.55632 88.5465 4.31934 89.2119L3.41699 91.8164H6.3291ZM13.1924 96.1367C12.249 96.1367 11.513 95.7949 10.9844 95.1113C10.4557 94.4277 10.1914 93.4684 10.1914 92.2334C10.1914 90.9938 10.458 90.0299 10.9912 89.3418C11.529 88.6491 12.2718 88.3027 13.2197 88.3027C14.2132 88.3027 14.9697 88.6696 15.4893 89.4033H15.5713C15.4938 88.861 15.4551 88.4326 15.4551 88.1182V85.3633H17.0684V96H15.8105L15.5303 95.0088H15.4551C14.9401 95.7607 14.1859 96.1367 13.1924 96.1367ZM13.623 94.8379C14.2839 94.8379 14.7646 94.6533 15.0654 94.2842C15.3662 93.9105 15.5212 93.3066 15.5303 92.4727V92.2471C15.5303 91.2946 15.3753 90.6178 15.0654 90.2168C14.7555 89.8158 14.2702 89.6152 13.6094 89.6152C13.0443 89.6152 12.609 89.8454 12.3037 90.3057C11.9984 90.7614 11.8457 91.4131 11.8457 92.2607C11.8457 93.0993 11.9938 93.7396 12.29 94.1816C12.5863 94.6191 13.0306 94.8379 13.623 94.8379ZM21.915 96.1367C20.9717 96.1367 20.2357 95.7949 19.707 95.1113C19.1784 94.4277 18.9141 93.4684 18.9141 92.2334C18.9141 90.9938 19.1807 90.0299 19.7139 89.3418C20.2516 88.6491 20.9945 88.3027 21.9424 88.3027C22.9359 88.3027 23.6924 88.6696 24.2119 89.4033H24.2939C24.2165 88.861 24.1777 88.4326 24.1777 88.1182V85.3633H25.791V96H24.5332L24.2529 95.0088H24.1777C23.6628 95.7607 22.9085 96.1367 21.915 96.1367ZM22.3457 94.8379C23.0065 94.8379 23.4873 94.6533 23.7881 94.2842C24.0889 93.9105 24.2438 93.3066 24.2529 92.4727V92.2471C24.2529 91.2946 24.098 90.6178 23.7881 90.2168C23.4782 89.8158 22.9928 89.6152 22.332 89.6152C21.7669 89.6152 21.3317 89.8454 21.0264 90.3057C20.721 90.7614 20.5684 91.4131 20.5684 92.2607C20.5684 93.0993 20.7165 93.7396 21.0127 94.1816C21.3089 94.6191 21.7533 94.8379 22.3457 94.8379ZM35.5596 96.1367C34.6025 96.1367 33.8597 95.7926 33.3311 95.1045H33.2354C33.2992 95.7425 33.3311 96.1299 33.3311 96.2666V99.3633H31.7246V88.4395H33.0234C33.0599 88.5807 33.1351 88.918 33.249 89.4512H33.3311C33.8324 88.6855 34.5843 88.3027 35.5869 88.3027C36.5303 88.3027 37.264 88.6445 37.7881 89.3281C38.3167 90.0117 38.5811 90.971 38.5811 92.2061C38.5811 93.4411 38.3122 94.4049 37.7744 95.0977C37.2412 95.7904 36.5029 96.1367 35.5596 96.1367ZM35.1699 89.6152C34.5319 89.6152 34.0648 89.8021 33.7686 90.1758C33.4769 90.5495 33.3311 91.1465 33.3311 91.9668V92.2061C33.3311 93.1266 33.4769 93.7943 33.7686 94.209C34.0602 94.6191 34.5365 94.8242 35.1973 94.8242C35.7533 94.8242 36.1816 94.5964 36.4824 94.1406C36.7832 93.6849 36.9336 93.0355 36.9336 92.1924C36.9336 91.3447 36.7832 90.7044 36.4824 90.2715C36.1862 89.834 35.7487 89.6152 35.1699 89.6152ZM42.0537 96H40.4473V88.4395H42.0537V96ZM40.3516 86.4365C40.3516 86.1494 40.429 85.9284 40.584 85.7734C40.7435 85.6185 40.9691 85.541 41.2607 85.541C41.5433 85.541 41.762 85.6185 41.917 85.7734C42.0765 85.9284 42.1562 86.1494 42.1562 86.4365C42.1562 86.71 42.0765 86.9264 41.917 87.0859C41.762 87.2409 41.5433 87.3184 41.2607 87.3184C40.9691 87.3184 40.7435 87.2409 40.584 87.0859C40.429 86.9264 40.3516 86.71 40.3516 86.4365ZM47.4062 96.1367C46.2624 96.1367 45.3919 95.804 44.7949 95.1387C44.2025 94.4688 43.9062 93.5094 43.9062 92.2607C43.9062 90.9893 44.2161 90.0117 44.8359 89.3281C45.4603 88.6445 46.3604 88.3027 47.5361 88.3027C48.3337 88.3027 49.0514 88.4508 49.6895 88.7471L49.2041 90.0391C48.5251 89.7747 47.9645 89.6426 47.5225 89.6426C46.2145 89.6426 45.5605 90.5107 45.5605 92.2471C45.5605 93.0947 45.7223 93.7327 46.0459 94.1611C46.374 94.585 46.8525 94.7969 47.4814 94.7969C48.1969 94.7969 48.8737 94.6191 49.5117 94.2637V95.665C49.2246 95.8337 48.917 95.9544 48.5889 96.0273C48.2653 96.1003 47.8711 96.1367 47.4062 96.1367ZM54.1055 94.8379C54.4974 94.8379 54.8893 94.7764 55.2812 94.6533V95.8633C55.1035 95.9408 54.8734 96.0046 54.5908 96.0547C54.3128 96.1094 54.0234 96.1367 53.7227 96.1367C52.2005 96.1367 51.4395 95.3346 51.4395 93.7305V89.6562H50.4072V88.9453L51.5146 88.3574L52.0615 86.7578H53.0527V88.4395H55.2061V89.6562H53.0527V93.7031C53.0527 94.0905 53.1484 94.3776 53.3398 94.5645C53.5358 94.7467 53.791 94.8379 54.1055 94.8379ZM62.1309 96L61.9053 95.0088H61.8232C61.5999 95.3597 61.2809 95.6354 60.8662 95.8359C60.4561 96.0365 59.9867 96.1367 59.458 96.1367C58.542 96.1367 57.8584 95.9089 57.4072 95.4531C56.9561 94.9974 56.7305 94.307 56.7305 93.3818V88.4395H58.3506V93.1016C58.3506 93.6803 58.4691 94.1156 58.7061 94.4072C58.943 94.6943 59.3145 94.8379 59.8203 94.8379C60.4948 94.8379 60.9893 94.6374 61.3037 94.2363C61.6227 93.8307 61.7822 93.154 61.7822 92.2061V88.4395H63.3955V96H62.1309ZM69.5205 88.3027C69.8441 88.3027 70.1107 88.3255 70.3203 88.3711L70.1631 89.8682C69.9352 89.8135 69.6982 89.7861 69.4521 89.7861C68.8096 89.7861 68.2878 89.9958 67.8867 90.415C67.4902 90.8343 67.292 91.3789 67.292 92.0488V96H65.6855V88.4395H66.9434L67.1553 89.7725H67.2373C67.488 89.3213 67.8138 88.9635 68.2148 88.6992C68.6204 88.4349 69.0557 88.3027 69.5205 88.3027ZM75.0303 96.1367C73.8545 96.1367 72.9339 95.7949 72.2686 95.1113C71.6077 94.4232 71.2773 93.4775 71.2773 92.2744C71.2773 91.0394 71.585 90.0687 72.2002 89.3623C72.8154 88.6559 73.6608 88.3027 74.7363 88.3027C75.7344 88.3027 76.5228 88.6058 77.1016 89.2119C77.6803 89.818 77.9697 90.652 77.9697 91.7139V92.582H72.9316C72.9544 93.3158 73.1527 93.8809 73.5264 94.2773C73.9001 94.6693 74.4264 94.8652 75.1055 94.8652C75.5521 94.8652 75.9668 94.8242 76.3496 94.7422C76.737 94.6556 77.1517 94.5143 77.5938 94.3184V95.624C77.2018 95.8109 76.8053 95.943 76.4043 96.0205C76.0033 96.098 75.5452 96.1367 75.0303 96.1367ZM74.7363 89.5195C74.2259 89.5195 73.8158 89.6813 73.5059 90.0049C73.2005 90.3285 73.0182 90.8001 72.959 91.4199H76.3906C76.3815 90.7956 76.2311 90.3239 75.9395 90.0049C75.6478 89.6813 75.2467 89.5195 74.7363 89.5195Z" fill="#D72130"/>
<path d="M90.9033 88.3027C91.2269 88.3027 91.4935 88.3255 91.7031 88.3711L91.5459 89.8682C91.318 89.8135 91.0811 89.7861 90.835 89.7861C90.1924 89.7861 89.6706 89.9958 89.2695 90.415C88.873 90.8343 88.6748 91.3789 88.6748 92.0488V96H87.0684V88.4395H88.3262L88.5381 89.7725H88.6201C88.8708 89.3213 89.1966 88.9635 89.5977 88.6992C90.0033 88.4349 90.4385 88.3027 90.9033 88.3027ZM94.7178 96H93.1113V88.4395H94.7178V96ZM93.0156 86.4365C93.0156 86.1494 93.0931 85.9284 93.248 85.7734C93.4076 85.6185 93.6331 85.541 93.9248 85.541C94.2074 85.541 94.4261 85.6185 94.5811 85.7734C94.7406 85.9284 94.8203 86.1494 94.8203 86.4365C94.8203 86.71 94.7406 86.9264 94.5811 87.0859C94.4261 87.2409 94.2074 87.3184 93.9248 87.3184C93.6331 87.3184 93.4076 87.2409 93.248 87.0859C93.0931 86.9264 93.0156 86.71 93.0156 86.4365ZM103.406 88.4395V89.3213L102.114 89.5605C102.233 89.7201 102.331 89.916 102.408 90.1484C102.486 90.3809 102.524 90.627 102.524 90.8867C102.524 91.666 102.256 92.279 101.718 92.7256C101.18 93.1722 100.439 93.3955 99.4961 93.3955C99.2546 93.3955 99.0358 93.3773 98.8398 93.3408C98.4935 93.555 98.3203 93.8057 98.3203 94.0928C98.3203 94.266 98.4001 94.3958 98.5596 94.4824C98.7236 94.569 99.0221 94.6123 99.4551 94.6123H100.774C101.608 94.6123 102.242 94.79 102.675 95.1455C103.108 95.501 103.324 96.0137 103.324 96.6836C103.324 97.5404 102.971 98.2012 102.265 98.666C101.558 99.1309 100.537 99.3633 99.2021 99.3633C98.1722 99.3633 97.3861 99.181 96.8438 98.8164C96.3014 98.4518 96.0303 97.9323 96.0303 97.2578C96.0303 96.793 96.1761 96.401 96.4678 96.082C96.764 95.7676 97.1764 95.5488 97.7051 95.4258C97.4909 95.3346 97.3132 95.1888 97.1719 94.9883C97.0352 94.7832 96.9668 94.569 96.9668 94.3457C96.9668 94.0632 97.0465 93.8239 97.2061 93.6279C97.3656 93.432 97.6025 93.2383 97.917 93.0469C97.5251 92.8783 97.2061 92.6048 96.96 92.2266C96.7184 91.8438 96.5977 91.3971 96.5977 90.8867C96.5977 90.0664 96.8551 89.4307 97.3701 88.9795C97.8896 88.5283 98.6279 88.3027 99.585 88.3027C99.7992 88.3027 100.022 88.3187 100.255 88.3506C100.492 88.3779 100.67 88.4076 100.788 88.4395H103.406ZM97.4658 97.1758C97.4658 97.5221 97.6208 97.7887 97.9307 97.9756C98.2451 98.1624 98.6849 98.2559 99.25 98.2559C100.125 98.2559 100.777 98.1305 101.205 97.8799C101.633 97.6292 101.848 97.2965 101.848 96.8818C101.848 96.5537 101.729 96.319 101.492 96.1777C101.26 96.041 100.825 95.9727 100.187 95.9727H98.9697C98.5094 95.9727 98.1426 96.0798 97.8691 96.2939C97.6003 96.5127 97.4658 96.8066 97.4658 97.1758ZM98.1562 90.8867C98.1562 91.3607 98.277 91.7253 98.5186 91.9805C98.7646 92.2357 99.1156 92.3633 99.5713 92.3633C100.501 92.3633 100.966 91.8665 100.966 90.873C100.966 90.3809 100.85 90.0026 100.617 89.7383C100.389 89.4694 100.041 89.335 99.5713 89.335C99.1064 89.335 98.7533 89.4671 98.5117 89.7314C98.2747 89.9958 98.1562 90.3809 98.1562 90.8867ZM111.466 96H109.853V91.3516C109.853 90.7682 109.734 90.333 109.497 90.0459C109.265 89.7588 108.893 89.6152 108.383 89.6152C107.708 89.6152 107.212 89.818 106.893 90.2236C106.578 90.6247 106.421 91.2992 106.421 92.2471V96H104.814V85.3633H106.421V88.0635C106.421 88.4964 106.394 88.959 106.339 89.4512H106.441C106.66 89.0866 106.963 88.804 107.351 88.6035C107.743 88.403 108.198 88.3027 108.718 88.3027C110.55 88.3027 111.466 89.2256 111.466 91.0713V96ZM116.518 94.8379C116.91 94.8379 117.301 94.7764 117.693 94.6533V95.8633C117.516 95.9408 117.285 96.0046 117.003 96.0547C116.725 96.1094 116.436 96.1367 116.135 96.1367C114.613 96.1367 113.852 95.3346 113.852 93.7305V89.6562H112.819V88.9453L113.927 88.3574L114.474 86.7578H115.465V88.4395H117.618V89.6562H115.465V93.7031C115.465 94.0905 115.561 94.3776 115.752 94.5645C115.948 94.7467 116.203 94.8379 116.518 94.8379ZM129.499 96H127.886V91.3516C127.886 90.7682 127.767 90.333 127.53 90.0459C127.298 89.7588 126.926 89.6152 126.416 89.6152C125.742 89.6152 125.245 89.818 124.926 90.2236C124.611 90.6247 124.454 91.2992 124.454 92.2471V96H122.848V85.3633H124.454V88.0635C124.454 88.4964 124.427 88.959 124.372 89.4512H124.475C124.693 89.0866 124.996 88.804 125.384 88.6035C125.776 88.403 126.231 88.3027 126.751 88.3027C128.583 88.3027 129.499 89.2256 129.499 91.0713V96ZM135.036 96.1367C133.86 96.1367 132.94 95.7949 132.274 95.1113C131.614 94.4232 131.283 93.4775 131.283 92.2744C131.283 91.0394 131.591 90.0687 132.206 89.3623C132.821 88.6559 133.667 88.3027 134.742 88.3027C135.74 88.3027 136.529 88.6058 137.107 89.2119C137.686 89.818 137.976 90.652 137.976 91.7139V92.582H132.938C132.96 93.3158 133.159 93.8809 133.532 94.2773C133.906 94.6693 134.432 94.8652 135.111 94.8652C135.558 94.8652 135.973 94.8242 136.355 94.7422C136.743 94.6556 137.158 94.5143 137.6 94.3184V95.624C137.208 95.8109 136.811 95.943 136.41 96.0205C136.009 96.098 135.551 96.1367 135.036 96.1367ZM134.742 89.5195C134.232 89.5195 133.822 89.6813 133.512 90.0049C133.206 90.3285 133.024 90.8001 132.965 91.4199H136.396C136.387 90.7956 136.237 90.3239 135.945 90.0049C135.654 89.6813 135.253 89.5195 134.742 89.5195ZM143.636 88.3027C143.959 88.3027 144.226 88.3255 144.436 88.3711L144.278 89.8682C144.05 89.8135 143.813 89.7861 143.567 89.7861C142.925 89.7861 142.403 89.9958 142.002 90.415C141.605 90.8343 141.407 91.3789 141.407 92.0488V96H139.801V88.4395H141.059L141.271 89.7725H141.353C141.603 89.3213 141.929 88.9635 142.33 88.6992C142.736 88.4349 143.171 88.3027 143.636 88.3027ZM149.146 96.1367C147.97 96.1367 147.049 95.7949 146.384 95.1113C145.723 94.4232 145.393 93.4775 145.393 92.2744C145.393 91.0394 145.7 90.0687 146.315 89.3623C146.931 88.6559 147.776 88.3027 148.852 88.3027C149.85 88.3027 150.638 88.6058 151.217 89.2119C151.796 89.818 152.085 90.652 152.085 91.7139V92.582H147.047C147.07 93.3158 147.268 93.8809 147.642 94.2773C148.015 94.6693 148.542 94.8652 149.221 94.8652C149.667 94.8652 150.082 94.8242 150.465 94.7422C150.852 94.6556 151.267 94.5143 151.709 94.3184V95.624C151.317 95.8109 150.921 95.943 150.52 96.0205C150.118 96.098 149.66 96.1367 149.146 96.1367ZM148.852 89.5195C148.341 89.5195 147.931 89.6813 147.621 90.0049C147.316 90.3285 147.133 90.8001 147.074 91.4199H150.506C150.497 90.7956 150.346 90.3239 150.055 90.0049C149.763 89.6813 149.362 89.5195 148.852 89.5195Z" fill="#262626"/>
<circle cx="75.5" cy="31.5" r="31.5" fill="#D72130"/>
<path d="M88.4008 23.4413H83.5817L80.6973 20.5284C80.6973 20.5284 80.683 20.5141 80.6759 20.5141L80.6616 20.4998C80.2333 20.0715 79.655 19.8002 78.9981 19.8002H73.001C72.3014 19.8002 71.6802 20.1 71.2447 20.5784V20.5855L68.4247 23.4413H63.4985C62.1705 23.4413 61.0996 24.4836 61.0996 25.8116V40.2403C61.0996 41.5683 62.1705 42.6463 63.4985 42.6463H88.4008C89.7216 42.6463 90.7996 41.5683 90.7996 40.2403V25.8116C90.7996 24.4836 89.7216 23.4413 88.4008 23.4413ZM75.9496 39.0409C72.3156 39.0409 69.3528 36.0709 69.3528 32.4298C69.3528 28.7816 72.3156 25.8187 75.9496 25.8187C79.5907 25.8187 82.5464 28.7816 82.5464 32.4298C82.5464 36.0709 79.5907 39.0409 75.9496 39.0409ZM87.951 27.2609C87.4012 27.2609 86.9515 26.8111 86.9515 26.2542C86.9515 25.6973 87.4012 25.2476 87.951 25.2476C88.5007 25.2476 88.9505 25.6973 88.9505 26.2542C88.9505 26.8111 88.5007 27.2609 87.951 27.2609Z" fill="white"/>
<path d="M75.9501 27.432C73.1943 27.432 70.9668 29.6666 70.9668 32.4296C70.9668 35.1854 73.1943 37.4272 75.9501 37.4272C78.6988 37.4272 80.9334 35.1926 80.9334 32.4296C80.9334 29.6666 78.6988 27.432 75.9501 27.432Z" fill="white"/>
</svg>
