<svg xmlns="http://www.w3.org/2000/svg" xmlns:xlink="http://www.w3.org/1999/xlink" width="813" height="450" viewBox="0 0 813 450">
  <defs>
    <clipPath id="clip-path">
      <rect id="tj-dragotta-578726-unsplash_copy" data-name="tj-dragotta-578726-unsplash copy" width="813" height="450" transform="translate(112.5 306.5)" fill="rgba(196,196,196,0.08)" stroke="#d1d1d1" stroke-width="1" stroke-dasharray="2 2"/>
    </clipPath>
  </defs>
  <g id="Group_1" data-name="Group 1" transform="translate(-112.5 -306.5)">
    <g id="Mask_Group_1" data-name="Mask Group 1" clip-path="url(#clip-path)">
      <circle id="Ellipse_2.1" data-name="Ellipse 2.1" cx="31.5" cy="31.5" r="31.5" transform="translate(488 500.5)" fill="#d72130"/>
      <path id="Vector" d="M27.4,4.441H22.582L19.7,1.529s-.014-.014-.021-.014L19.662,1.5A2.335,2.335,0,0,0,18,.8H12a2.361,2.361,0,0,0-1.756.778v.007L7.425,4.441H2.5A2.371,2.371,0,0,0,.1,6.812V21.24a2.4,2.4,0,0,0,2.4,2.406H27.4a2.4,2.4,0,0,0,2.4-2.406V6.812A2.375,2.375,0,0,0,27.4,4.441ZM14.95,20.041a6.611,6.611,0,1,1,6.6-6.611A6.616,6.616,0,0,1,14.95,20.041Zm12-11.78a1.007,1.007,0,1,1,1-1.007A1,1,0,0,1,26.951,8.261Z" transform="translate(503.9 519.2)" fill="#fff"/>
    </g>
    <g id="_Add_picture_or_drop_it_right_here_You_can_add_next_formats__png._jpg._jpeg._tif" data-name="+Add picture or drop it right here You can add next formats_ png. jpg. jpeg. tif" transform="translate(374.639 583.637)">
      <path id="Path_1" data-name="Path 1" d="M34.562,6.816H31.916v-1.5h2.646V2.653h1.5V5.319H38.7v1.5H36.059V9.448h-1.5ZM46.688,11l-.725-2.379H42.32L41.6,11H39.313L42.84.965h2.591L48.972,11Zm-1.23-4.156q-1-3.233-1.135-3.657t-.178-.67q-.226.875-1.292,4.327Zm7.034,4.293a2.491,2.491,0,0,1-2.119-1.046,4.824,4.824,0,0,1-.766-2.9,4.813,4.813,0,0,1,.779-2.926,2.548,2.548,0,0,1,2.16-1.053,2.493,2.493,0,0,1,2.2,1.121h.068a8.525,8.525,0,0,1-.157-1.524V.363h2.092V11h-1.6l-.4-.991h-.089A2.386,2.386,0,0,1,52.492,11.137Zm.731-1.661a1.4,1.4,0,0,0,1.169-.465,2.685,2.685,0,0,0,.41-1.579V7.206a3.1,3.1,0,0,0-.383-1.764,1.4,1.4,0,0,0-1.23-.533A1.23,1.23,0,0,0,52.1,5.5,3.159,3.159,0,0,0,51.72,7.22a3.007,3.007,0,0,0,.39,1.7A1.275,1.275,0,0,0,53.224,9.476Zm8.128,1.661a2.491,2.491,0,0,1-2.119-1.046,4.824,4.824,0,0,1-.766-2.9,4.813,4.813,0,0,1,.779-2.926,2.548,2.548,0,0,1,2.16-1.053,2.493,2.493,0,0,1,2.2,1.121h.068a8.525,8.525,0,0,1-.157-1.524V.363H65.61V11h-1.6l-.4-.991h-.089A2.386,2.386,0,0,1,61.352,11.137Zm.731-1.661a1.4,1.4,0,0,0,1.169-.465,2.685,2.685,0,0,0,.41-1.579V7.206a3.1,3.1,0,0,0-.383-1.764,1.4,1.4,0,0,0-1.23-.533,1.23,1.23,0,0,0-1.087.595,3.159,3.159,0,0,0-.383,1.716,3.007,3.007,0,0,0,.39,1.7A1.275,1.275,0,0,0,62.083,9.476Zm13.542,1.661a2.535,2.535,0,0,1-2.112-.977H73.4q.109.957.109,1.107v3.1H71.428V3.357h1.7l.294.991h.1A2.412,2.412,0,0,1,75.68,3.214,2.48,2.48,0,0,1,77.8,4.26a4.837,4.837,0,0,1,.766,2.905A5.687,5.687,0,0,1,78.2,9.291a2.96,2.96,0,0,1-1.019,1.374A2.619,2.619,0,0,1,75.625,11.137ZM75.01,4.882a1.312,1.312,0,0,0-1.128.479,2.711,2.711,0,0,0-.369,1.565v.226a3.245,3.245,0,0,0,.362,1.764,1.314,1.314,0,0,0,1.162.533q1.4,0,1.4-2.311a3.252,3.252,0,0,0-.349-1.688A1.168,1.168,0,0,0,75.01,4.882Zm5.188-3.5Q80.2.363,81.333.363t1.135,1.019a1,1,0,0,1-.287.759,1.189,1.189,0,0,1-.848.267Q80.2,2.407,80.2,1.382ZM82.372,11H80.287V3.357h2.085Zm5.3.137q-3.568,0-3.568-3.917a4.165,4.165,0,0,1,.971-2.974,3.635,3.635,0,0,1,2.782-1.032,5.3,5.3,0,0,1,2.379.52l-.615,1.613q-.492-.2-.916-.321a2.879,2.879,0,0,0-.848-.13q-1.627,0-1.627,2.311,0,2.242,1.627,2.242a3.785,3.785,0,0,0,1.114-.157,4.118,4.118,0,0,0,1.025-.506v1.784a3.355,3.355,0,0,1-1.025.444A5.7,5.7,0,0,1,87.67,11.137Zm7.321-1.661A4.52,4.52,0,0,0,96.3,9.236v1.552a4.68,4.68,0,0,1-1.914.349,2.361,2.361,0,0,1-1.825-.629A2.777,2.777,0,0,1,92,8.607V4.923H91V4.041l1.148-.7.6-1.613h1.333V3.357h2.14V4.923h-2.14V8.607a.82.82,0,0,0,.246.656A1,1,0,0,0,94.991,9.476ZM103.27,11l-.281-.977h-.109a2.221,2.221,0,0,1-.95.827,3.28,3.28,0,0,1-1.4.287,2.675,2.675,0,0,1-2.03-.718,2.914,2.914,0,0,1-.684-2.078V3.357H99.9V7.821a2.164,2.164,0,0,0,.294,1.244,1.073,1.073,0,0,0,.937.41,1.412,1.412,0,0,0,1.265-.581,3.652,3.652,0,0,0,.389-1.941v-3.6h2.085V11Zm8.052-7.786a3.353,3.353,0,0,1,.7.062l-.157,1.955a2.386,2.386,0,0,0-.615-.068,2.226,2.226,0,0,0-1.559.513,1.859,1.859,0,0,0-.553,1.436V11h-2.085V3.357h1.579l.307,1.285h.1A2.855,2.855,0,0,1,110,3.61,2.37,2.37,0,0,1,111.322,3.214ZM116.579,4.7a1.318,1.318,0,0,0-1.039.424,1.931,1.931,0,0,0-.431,1.189h2.926a1.723,1.723,0,0,0-.4-1.189A1.361,1.361,0,0,0,116.579,4.7Zm.294,6.439a3.947,3.947,0,0,1-2.885-1.018,3.859,3.859,0,0,1-1.039-2.885,4.239,4.239,0,0,1,.957-2.967,3.426,3.426,0,0,1,2.659-1.053,3.367,3.367,0,0,1,2.523.923,3.493,3.493,0,0,1,.9,2.55V7.7h-4.928a2,2,0,0,0,.526,1.388,1.851,1.851,0,0,0,1.381.5,5.728,5.728,0,0,0,1.305-.144,6.53,6.53,0,0,0,1.286-.458V10.6a4.808,4.808,0,0,1-1.169.4A7.2,7.2,0,0,1,116.873,11.137Z" fill="#d72130"/>
      <path id="Path_2" data-name="Path 2" d="M132.083,7.206a4.129,4.129,0,0,1-.95,2.892,3.405,3.405,0,0,1-2.646,1.039,3.627,3.627,0,0,1-1.873-.478,3.163,3.163,0,0,1-1.251-1.374,4.689,4.689,0,0,1-.437-2.078,4.1,4.1,0,0,1,.943-2.871A3.42,3.42,0,0,1,128.528,3.3a3.326,3.326,0,0,1,2.6,1.06A4.067,4.067,0,0,1,132.083,7.206Zm-5.5,0q0,2.618,1.935,2.618,1.914,0,1.914-2.618,0-2.591-1.928-2.591a1.653,1.653,0,0,0-1.47.67A3.428,3.428,0,0,0,126.58,7.206Zm11.191-3.9a3.859,3.859,0,0,1,.8.068l-.157,1.5a3.038,3.038,0,0,0-.711-.082,2.068,2.068,0,0,0-1.565.629,2.279,2.279,0,0,0-.595,1.634V11h-1.606V3.439h1.257l.212,1.333h.082a3.012,3.012,0,0,1,.978-1.073A2.347,2.347,0,0,1,137.771,3.3Zm8.394,7.834a2.634,2.634,0,0,1-2.208-1.025,4.606,4.606,0,0,1-.793-2.878,4.624,4.624,0,0,1,.8-2.892A2.664,2.664,0,0,1,146.192,3.3a2.607,2.607,0,0,1,2.27,1.1h.082a9.535,9.535,0,0,1-.116-1.285V.363h1.613V11h-1.258l-.28-.991h-.075A2.568,2.568,0,0,1,146.165,11.137Zm.431-1.3a1.753,1.753,0,0,0,1.442-.554,2.947,2.947,0,0,0,.465-1.812V7.247a3.388,3.388,0,0,0-.465-2.03,1.724,1.724,0,0,0-1.456-.6,1.477,1.477,0,0,0-1.306.69,3.506,3.506,0,0,0-.458,1.955,3.444,3.444,0,0,0,.445,1.921A1.5,1.5,0,0,0,146.6,9.838ZM156.173,3.3a3.876,3.876,0,0,1,.8.068l-.158,1.5a3.026,3.026,0,0,0-.711-.082,2.068,2.068,0,0,0-1.565.629,2.283,2.283,0,0,0-.6,1.634V11h-1.606V3.439H153.6l.212,1.333h.082a3,3,0,0,1,.977-1.073A2.35,2.35,0,0,1,156.173,3.3Zm8.914,3.9a4.129,4.129,0,0,1-.95,2.892,3.407,3.407,0,0,1-2.646,1.039,3.625,3.625,0,0,1-1.873-.478,3.163,3.163,0,0,1-1.251-1.374,4.689,4.689,0,0,1-.437-2.078,4.1,4.1,0,0,1,.943-2.871A3.42,3.42,0,0,1,161.532,3.3a3.326,3.326,0,0,1,2.6,1.06A4.067,4.067,0,0,1,165.087,7.206Zm-5.5,0q0,2.618,1.935,2.618,1.914,0,1.914-2.618,0-2.591-1.928-2.591a1.652,1.652,0,0,0-1.47.67A3.428,3.428,0,0,0,159.584,7.206Zm11.19,3.931a2.648,2.648,0,0,1-2.228-1.032h-.1q.1.957.1,1.162v3.1h-1.607V3.439h1.3q.055.212.226,1.012h.082A2.516,2.516,0,0,1,170.8,3.3,2.615,2.615,0,0,1,173,4.328a4.607,4.607,0,0,1,.793,2.878,4.611,4.611,0,0,1-.807,2.892A2.638,2.638,0,0,1,170.774,11.137Zm-.389-6.521a1.682,1.682,0,0,0-1.4.561,2.927,2.927,0,0,0-.437,1.791v.239a3.56,3.56,0,0,0,.437,2,1.632,1.632,0,0,0,1.429.615,1.45,1.45,0,0,0,1.285-.684,3.528,3.528,0,0,0,.451-1.948,3.367,3.367,0,0,0-.451-1.921A1.481,1.481,0,0,0,170.385,4.615ZM180.9,11H179.3V3.439H180.9Zm-1.7-9.563a.9.9,0,0,1,.233-.663.93.93,0,0,1,.676-.232.889.889,0,0,1,.657.232.884.884,0,0,1,.239.663.879.879,0,0,1-.239.649.889.889,0,0,1-.657.232.93.93,0,0,1-.676-.232A.892.892,0,0,1,179.2,1.437Zm6.822,8.4a3.908,3.908,0,0,0,1.176-.185v1.21a3.134,3.134,0,0,1-.69.191,4.492,4.492,0,0,1-.868.082q-2.285,0-2.284-2.406V4.656h-1.032V3.945l1.108-.588.546-1.6h.992V3.439h2.153V4.656h-2.153V8.7a1.153,1.153,0,0,0,.287.861A1.078,1.078,0,0,0,186.025,9.838ZM196.19,3.3a3.862,3.862,0,0,1,.8.068l-.157,1.5a3.038,3.038,0,0,0-.711-.082,2.067,2.067,0,0,0-1.565.629,2.279,2.279,0,0,0-.6,1.634V11h-1.607V3.439h1.258l.212,1.333h.082a3.012,3.012,0,0,1,.978-1.073A2.346,2.346,0,0,1,196.19,3.3Zm3.815,7.7H198.4V3.439h1.607Zm-1.7-9.563a.9.9,0,0,1,.232-.663.932.932,0,0,1,.677-.232.888.888,0,0,1,.656.232.88.88,0,0,1,.239.663.875.875,0,0,1-.239.649.888.888,0,0,1-.656.232.932.932,0,0,1-.677-.232A.892.892,0,0,1,198.3,1.437Zm10.39,2v.882l-1.292.239a2.06,2.06,0,0,1,.294.588,2.305,2.305,0,0,1,.117.738,2.262,2.262,0,0,1-.807,1.839,3.376,3.376,0,0,1-2.222.67,3.6,3.6,0,0,1-.656-.055.906.906,0,0,0-.52.752.418.418,0,0,0,.24.39,2.121,2.121,0,0,0,.9.13h1.32a2.932,2.932,0,0,1,1.9.533,1.875,1.875,0,0,1,.649,1.538,2.237,2.237,0,0,1-1.059,1.982,5.58,5.58,0,0,1-3.063.7,4.224,4.224,0,0,1-2.358-.547,1.769,1.769,0,0,1-.814-1.559,1.677,1.677,0,0,1,.438-1.176,2.4,2.4,0,0,1,1.237-.656,1.236,1.236,0,0,1-.533-.438,1.139,1.139,0,0,1-.205-.643,1.1,1.1,0,0,1,.239-.718,2.777,2.777,0,0,1,.711-.581,2.131,2.131,0,0,1-.957-.82,2.462,2.462,0,0,1-.362-1.34,2.4,2.4,0,0,1,.772-1.907,3.277,3.277,0,0,1,2.215-.677,4.927,4.927,0,0,1,.67.048,3.943,3.943,0,0,1,.533.089Zm-5.94,8.736a.885.885,0,0,0,.465.8,2.591,2.591,0,0,0,1.319.28,3.975,3.975,0,0,0,1.955-.376,1.127,1.127,0,0,0,.643-1,.755.755,0,0,0-.356-.7,2.841,2.841,0,0,0-1.305-.2h-1.217a1.741,1.741,0,0,0-1.1.321A1.077,1.077,0,0,0,202.753,12.176Zm.69-6.289a1.529,1.529,0,0,0,.363,1.094,1.394,1.394,0,0,0,1.052.383q1.395,0,1.4-1.49a1.663,1.663,0,0,0-.349-1.135,1.3,1.3,0,0,0-1.046-.4,1.363,1.363,0,0,0-1.059.4A1.677,1.677,0,0,0,203.443,5.887ZM216.753,11H215.14V6.352a2.02,2.02,0,0,0-.356-1.306,1.35,1.35,0,0,0-1.114-.431,1.778,1.778,0,0,0-1.49.608,3.332,3.332,0,0,0-.472,2.023V11H210.1V.363h1.606v2.7a12.527,12.527,0,0,1-.082,1.388h.1a2.227,2.227,0,0,1,.909-.848,2.96,2.96,0,0,1,1.367-.3,2.438,2.438,0,0,1,2.748,2.769ZM221.8,9.838a3.9,3.9,0,0,0,1.175-.185v1.21a3.1,3.1,0,0,1-.69.191,4.485,4.485,0,0,1-.868.082q-2.283,0-2.283-2.406V4.656h-1.033V3.945l1.108-.588.547-1.6h.991V3.439H222.9V4.656h-2.153V8.7a1.157,1.157,0,0,0,.287.861A1.079,1.079,0,0,0,221.8,9.838ZM234.786,11h-1.613V6.352a2.02,2.02,0,0,0-.356-1.306,1.349,1.349,0,0,0-1.114-.431,1.779,1.779,0,0,0-1.49.608,3.332,3.332,0,0,0-.472,2.023V11h-1.606V.363h1.606v2.7a12.523,12.523,0,0,1-.082,1.388h.1a2.233,2.233,0,0,1,.909-.848,2.963,2.963,0,0,1,1.367-.3,2.438,2.438,0,0,1,2.748,2.769Zm5.537.137a3.673,3.673,0,0,1-2.761-1.025,3.925,3.925,0,0,1-.992-2.837,4.286,4.286,0,0,1,.923-2.912,3.188,3.188,0,0,1,2.536-1.06,3.118,3.118,0,0,1,2.366.909,3.477,3.477,0,0,1,.868,2.5v.868h-5.038a2.5,2.5,0,0,0,.594,1.7,2.078,2.078,0,0,0,1.579.588,5.944,5.944,0,0,0,1.245-.123,6.71,6.71,0,0,0,1.244-.424v1.306a4.937,4.937,0,0,1-1.19.4A7.291,7.291,0,0,1,240.323,11.137Zm-.294-6.617A1.625,1.625,0,0,0,238.8,5a2.32,2.32,0,0,0-.547,1.415h3.432A2.082,2.082,0,0,0,241.232,5,1.536,1.536,0,0,0,240.029,4.52ZM248.923,3.3a3.876,3.876,0,0,1,.8.068l-.158,1.5a3.026,3.026,0,0,0-.711-.082,2.068,2.068,0,0,0-1.565.629,2.283,2.283,0,0,0-.6,1.634V11h-1.606V3.439h1.258l.212,1.333h.082a3,3,0,0,1,.977-1.073A2.35,2.35,0,0,1,248.923,3.3Zm5.51,7.834a3.675,3.675,0,0,1-2.762-1.025,3.925,3.925,0,0,1-.991-2.837,4.281,4.281,0,0,1,.923-2.912,3.186,3.186,0,0,1,2.536-1.06,3.115,3.115,0,0,1,2.365.909,3.473,3.473,0,0,1,.868,2.5v.868h-5.038a2.5,2.5,0,0,0,.6,1.7,2.077,2.077,0,0,0,1.579.588,5.941,5.941,0,0,0,1.244-.123A6.711,6.711,0,0,0,257,9.318v1.306a4.93,4.93,0,0,1-1.189.4A7.291,7.291,0,0,1,254.433,11.137Zm-.294-6.617A1.626,1.626,0,0,0,252.908,5a2.332,2.332,0,0,0-.547,1.415h3.432A2.082,2.082,0,0,0,255.342,5,1.538,1.538,0,0,0,254.139,4.52ZM4.5,24.565l2.365-4.559H8.646L5.317,26.124V30H3.677V26.179L.361,20.006H2.139Zm12,1.641a4.127,4.127,0,0,1-.95,2.892,3.4,3.4,0,0,1-2.646,1.039,3.625,3.625,0,0,1-1.873-.479,3.159,3.159,0,0,1-1.251-1.374,4.68,4.68,0,0,1-.437-2.078,4.1,4.1,0,0,1,.943-2.871A3.42,3.42,0,0,1,12.946,22.3a3.325,3.325,0,0,1,2.6,1.06A4.066,4.066,0,0,1,16.5,26.206Zm-5.5,0q0,2.618,1.935,2.618,1.914,0,1.914-2.618,0-2.591-1.928-2.591a1.653,1.653,0,0,0-1.47.67A3.429,3.429,0,0,0,11,26.206ZM23.685,30l-.226-.991h-.082a2.275,2.275,0,0,1-.957.827,3.166,3.166,0,0,1-1.408.3,2.771,2.771,0,0,1-2.051-.684,2.834,2.834,0,0,1-.677-2.071V22.44h1.62V27.1a2.038,2.038,0,0,0,.355,1.306,1.363,1.363,0,0,0,1.114.431,1.769,1.769,0,0,0,1.483-.6,3.331,3.331,0,0,0,.479-2.03V22.44H24.95V30Zm10.24.137a3.327,3.327,0,0,1-2.611-1,4.208,4.208,0,0,1-.889-2.878,4.218,4.218,0,0,1,.93-2.933,3.472,3.472,0,0,1,2.7-1.025,5.053,5.053,0,0,1,2.153.444l-.485,1.292a4.863,4.863,0,0,0-1.682-.4q-1.962,0-1.962,2.6a3.152,3.152,0,0,0,.485,1.914A1.705,1.705,0,0,0,34,28.8a4.109,4.109,0,0,0,2.03-.533v1.4a3.165,3.165,0,0,1-.923.362A5.464,5.464,0,0,1,33.926,30.137ZM42.539,30l-.321-1.053h-.055a3.135,3.135,0,0,1-1.1.943,3.523,3.523,0,0,1-1.422.246,2.419,2.419,0,0,1-1.743-.6,2.258,2.258,0,0,1-.622-1.7,2,2,0,0,1,.868-1.764,5.007,5.007,0,0,1,2.646-.649l1.306-.041v-.4a1.506,1.506,0,0,0-.342-1.08,1.361,1.361,0,0,0-1.046-.362,3.629,3.629,0,0,0-1.114.171,8.408,8.408,0,0,0-1.025.4l-.52-1.148a5.491,5.491,0,0,1,1.347-.485,6.082,6.082,0,0,1,1.381-.171,3.256,3.256,0,0,1,2.174.629,2.456,2.456,0,0,1,.738,1.976V30Zm-2.393-1.094a1.986,1.986,0,0,0,1.4-.485,1.777,1.777,0,0,0,.533-1.374v-.656l-.971.041a3.314,3.314,0,0,0-1.654.383,1.146,1.146,0,0,0-.513,1.032,1.022,1.022,0,0,0,.3.786A1.3,1.3,0,0,0,40.146,28.906ZM52.581,30H50.968V25.352a2.02,2.02,0,0,0-.355-1.306,1.35,1.35,0,0,0-1.114-.431,1.777,1.777,0,0,0-1.49.6,3.321,3.321,0,0,0-.472,2.017V30H45.93V22.44h1.258l.226.991H47.5a2.236,2.236,0,0,1,.971-.834A3.253,3.253,0,0,1,49.86,22.3q2.721,0,2.721,2.769Zm10.6,0-.321-1.053h-.055a3.134,3.134,0,0,1-1.1.943,3.522,3.522,0,0,1-1.422.246,2.419,2.419,0,0,1-1.743-.6,2.258,2.258,0,0,1-.622-1.7,2,2,0,0,1,.868-1.764,5.007,5.007,0,0,1,2.646-.649l1.306-.041v-.4A1.506,1.506,0,0,0,62.4,23.9a1.361,1.361,0,0,0-1.046-.362,3.629,3.629,0,0,0-1.114.171,8.408,8.408,0,0,0-1.025.4l-.519-1.148a5.49,5.49,0,0,1,1.347-.485A6.081,6.081,0,0,1,61.42,22.3a3.257,3.257,0,0,1,2.174.629,2.456,2.456,0,0,1,.738,1.976V30Zm-2.393-1.094a1.986,1.986,0,0,0,1.4-.485,1.777,1.777,0,0,0,.533-1.374v-.656l-.971.041a3.314,3.314,0,0,0-1.654.383,1.146,1.146,0,0,0-.513,1.032,1.022,1.022,0,0,0,.3.786A1.3,1.3,0,0,0,60.791,28.906Zm8.333,1.23a2.634,2.634,0,0,1-2.208-1.025,4.609,4.609,0,0,1-.793-2.878,4.622,4.622,0,0,1,.8-2.892A2.664,2.664,0,0,1,69.151,22.3a2.606,2.606,0,0,1,2.27,1.1H71.5a9.641,9.641,0,0,1-.116-1.285V19.363H73V30H71.742l-.28-.991h-.075A2.568,2.568,0,0,1,69.124,30.137Zm.431-1.3A1.754,1.754,0,0,0,71,28.284a2.949,2.949,0,0,0,.465-1.812v-.226A3.389,3.389,0,0,0,71,24.217a1.725,1.725,0,0,0-1.456-.6,1.475,1.475,0,0,0-1.306.691,3.5,3.5,0,0,0-.458,1.955,3.451,3.451,0,0,0,.444,1.921A1.5,1.5,0,0,0,69.555,28.838Zm8.292,1.3a2.633,2.633,0,0,1-2.208-1.025,4.608,4.608,0,0,1-.793-2.878,4.623,4.623,0,0,1,.8-2.892A2.665,2.665,0,0,1,77.874,22.3a2.607,2.607,0,0,1,2.27,1.1h.082a9.625,9.625,0,0,1-.116-1.285V19.363h1.613V30H80.465l-.28-.991h-.075A2.568,2.568,0,0,1,77.847,30.137Zm.431-1.3a1.754,1.754,0,0,0,1.442-.554,2.949,2.949,0,0,0,.465-1.812v-.226a3.389,3.389,0,0,0-.465-2.03,1.724,1.724,0,0,0-1.456-.6,1.475,1.475,0,0,0-1.306.691,3.5,3.5,0,0,0-.458,1.955,3.451,3.451,0,0,0,.444,1.921A1.5,1.5,0,0,0,78.277,28.838ZM94.308,30H92.694V25.352a2.021,2.021,0,0,0-.355-1.306,1.351,1.351,0,0,0-1.114-.431,1.777,1.777,0,0,0-1.49.6,3.321,3.321,0,0,0-.472,2.017V30H87.656V22.44h1.258l.226.991h.082a2.235,2.235,0,0,1,.971-.834,3.253,3.253,0,0,1,1.395-.294q2.721,0,2.721,2.769Zm5.537.137a3.676,3.676,0,0,1-2.762-1.025,3.926,3.926,0,0,1-.991-2.837,4.285,4.285,0,0,1,.923-2.912,3.188,3.188,0,0,1,2.536-1.06,3.116,3.116,0,0,1,2.365.909,3.473,3.473,0,0,1,.868,2.5v.868H97.746a2.5,2.5,0,0,0,.595,1.7,2.078,2.078,0,0,0,1.579.588,5.936,5.936,0,0,0,1.244-.123,6.715,6.715,0,0,0,1.244-.424v1.306a4.93,4.93,0,0,1-1.189.4A7.292,7.292,0,0,1,99.845,30.137Zm-.294-6.617A1.625,1.625,0,0,0,98.32,24a2.326,2.326,0,0,0-.547,1.415h3.432A2.077,2.077,0,0,0,100.754,24,1.539,1.539,0,0,0,99.551,23.52Zm6.74,2.618-2.536-3.7h1.832l1.723,2.645,1.736-2.645h1.818l-2.543,3.7L110.994,30h-1.818l-1.866-2.83L105.45,30h-1.818Zm8.846,2.7a3.9,3.9,0,0,0,1.175-.185v1.21a3.1,3.1,0,0,1-.69.191,4.485,4.485,0,0,1-.868.082q-2.283,0-2.283-2.406V23.656h-1.033v-.711l1.108-.588.547-1.6h.991V22.44h2.153v1.217h-2.153V27.7a1.157,1.157,0,0,0,.287.861A1.08,1.08,0,0,0,115.137,28.838Zm10.124-5.182h-1.846V30H121.8V23.656h-1.244V22.9l1.244-.492V21.92a2.735,2.735,0,0,1,.629-1.982,2.562,2.562,0,0,1,1.921-.649,5.126,5.126,0,0,1,1.668.28l-.424,1.217a3.708,3.708,0,0,0-1.135-.191.929.929,0,0,0-.8.342,1.707,1.707,0,0,0-.246,1.012v.492h1.846Zm8,2.55a4.129,4.129,0,0,1-.95,2.892,3.407,3.407,0,0,1-2.646,1.039,3.625,3.625,0,0,1-1.873-.479,3.163,3.163,0,0,1-1.251-1.374,4.675,4.675,0,0,1-.437-2.078,4.1,4.1,0,0,1,.943-2.871A3.42,3.42,0,0,1,129.7,22.3a3.326,3.326,0,0,1,2.6,1.06A4.067,4.067,0,0,1,133.259,26.206Zm-5.5,0q0,2.618,1.934,2.618,1.914,0,1.914-2.618,0-2.591-1.927-2.591a1.652,1.652,0,0,0-1.47.67A3.428,3.428,0,0,0,127.756,26.206Zm11.19-3.9a3.867,3.867,0,0,1,.8.068l-.157,1.5a3.038,3.038,0,0,0-.711-.082,2.071,2.071,0,0,0-1.566.629,2.283,2.283,0,0,0-.594,1.634V30h-1.607V22.44h1.258l.212,1.333h.082a3.012,3.012,0,0,1,.978-1.073A2.344,2.344,0,0,1,138.946,22.3Zm8.579,7.7h-1.613V25.338a2.1,2.1,0,0,0-.328-1.292,1.207,1.207,0,0,0-1.025-.431,1.571,1.571,0,0,0-1.368.608,3.556,3.556,0,0,0-.43,2.01V30h-1.607V22.44h1.258l.226.991h.082a2.091,2.091,0,0,1,.909-.834,2.964,2.964,0,0,1,1.319-.294,2.3,2.3,0,0,1,2.311,1.19h.109a2.3,2.3,0,0,1,.944-.875,2.991,2.991,0,0,1,1.394-.315,2.529,2.529,0,0,1,1.969.684,3.015,3.015,0,0,1,.622,2.085V30H150.69V25.338a2.062,2.062,0,0,0-.335-1.292,1.2,1.2,0,0,0-1.025-.431,1.6,1.6,0,0,0-1.374.588,3.015,3.015,0,0,0-.431,1.791Zm11.745,0-.322-1.053h-.054a3.14,3.14,0,0,1-1.1.943,3.522,3.522,0,0,1-1.422.246,2.418,2.418,0,0,1-1.743-.6,2.257,2.257,0,0,1-.622-1.7,2,2,0,0,1,.868-1.764,5.009,5.009,0,0,1,2.646-.649l1.3-.041v-.4a1.505,1.505,0,0,0-.342-1.08,1.36,1.36,0,0,0-1.045-.362,3.634,3.634,0,0,0-1.115.171,8.428,8.428,0,0,0-1.025.4l-.52-1.148a5.486,5.486,0,0,1,1.347-.485,6.085,6.085,0,0,1,1.381-.171,3.259,3.259,0,0,1,2.174.629,2.457,2.457,0,0,1,.738,1.976V30Zm-2.393-1.094a1.985,1.985,0,0,0,1.4-.485,1.775,1.775,0,0,0,.534-1.374v-.656l-.971.041a3.31,3.31,0,0,0-1.654.383,1.146,1.146,0,0,0-.513,1.032,1.02,1.02,0,0,0,.3.786A1.3,1.3,0,0,0,156.877,28.906Zm8.6-.068a3.9,3.9,0,0,0,1.175-.185v1.21a3.118,3.118,0,0,1-.69.191,4.485,4.485,0,0,1-.868.082q-2.283,0-2.283-2.406V23.656h-1.033v-.711l1.108-.588.547-1.6h.991V22.44h2.153v1.217h-2.153V27.7a1.157,1.157,0,0,0,.287.861A1.08,1.08,0,0,0,165.477,28.838Zm7.772-.991a1.987,1.987,0,0,1-.807,1.7,3.877,3.877,0,0,1-2.31.588,5.461,5.461,0,0,1-2.427-.458V28.291a5.959,5.959,0,0,0,2.482.615q1.482,0,1.483-.9a.711.711,0,0,0-.164-.479,1.963,1.963,0,0,0-.54-.4,9.3,9.3,0,0,0-1.046-.465,4.879,4.879,0,0,1-1.771-1.012,1.882,1.882,0,0,1-.458-1.312,1.717,1.717,0,0,1,.78-1.5,3.712,3.712,0,0,1,2.133-.54,6.03,6.03,0,0,1,2.522.54l-.52,1.21a5.6,5.6,0,0,0-2.057-.506q-1.272,0-1.272.725a.733.733,0,0,0,.328.6,7.448,7.448,0,0,0,1.45.677,6.624,6.624,0,0,1,1.36.663,1.851,1.851,0,0,1,.834,1.634Zm1.5,1.3a1.053,1.053,0,0,1,.26-.766,1,1,0,0,1,.752-.267.983.983,0,0,1,.758.28,1.044,1.044,0,0,1,.26.752,1.093,1.093,0,0,1-.266.772,1.149,1.149,0,0,1-1.5,0A1.094,1.094,0,0,1,174.753,29.146Zm0-5.838a.9.9,0,0,1,1.012-1.032.992.992,0,0,1,.765.273,1.073,1.073,0,0,1,.253.759,1.093,1.093,0,0,1-.266.772,1.149,1.149,0,0,1-1.5,0A1.094,1.094,0,0,1,174.753,23.308Zm11.566,6.829a2.646,2.646,0,0,1-2.228-1.032h-.1q.1.957.1,1.162v3.1h-1.607V22.44h1.3q.056.212.226,1.012h.082a2.516,2.516,0,0,1,2.256-1.149,2.615,2.615,0,0,1,2.2,1.025,4.613,4.613,0,0,1,.793,2.878,4.611,4.611,0,0,1-.807,2.892A2.638,2.638,0,0,1,186.319,30.137Zm-.389-6.521a1.682,1.682,0,0,0-1.4.561,2.927,2.927,0,0,0-.437,1.791v.239a3.56,3.56,0,0,0,.437,2,1.632,1.632,0,0,0,1.429.615,1.45,1.45,0,0,0,1.285-.684,3.528,3.528,0,0,0,.451-1.948,3.367,3.367,0,0,0-.451-1.921A1.482,1.482,0,0,0,185.93,23.615ZM197.858,30h-1.613V25.352a2.02,2.02,0,0,0-.355-1.306,1.352,1.352,0,0,0-1.115-.431,1.778,1.778,0,0,0-1.49.6,3.324,3.324,0,0,0-.472,2.017V30h-1.606V22.44h1.258l.225.991h.082a2.239,2.239,0,0,1,.971-.834,3.252,3.252,0,0,1,1.4-.294q2.72,0,2.72,2.769Zm8.621-7.56v.882l-1.292.239a2.086,2.086,0,0,1,.293.588,2.306,2.306,0,0,1,.117.738,2.262,2.262,0,0,1-.807,1.839,3.376,3.376,0,0,1-2.222.67,3.6,3.6,0,0,1-.656-.055.905.905,0,0,0-.519.752.417.417,0,0,0,.239.39,2.121,2.121,0,0,0,.895.13h1.32a2.932,2.932,0,0,1,1.9.533,1.875,1.875,0,0,1,.649,1.538,2.237,2.237,0,0,1-1.059,1.982,5.578,5.578,0,0,1-3.063.7,4.224,4.224,0,0,1-2.358-.547,1.768,1.768,0,0,1-.813-1.559,1.677,1.677,0,0,1,.437-1.176,2.4,2.4,0,0,1,1.237-.656,1.236,1.236,0,0,1-.533-.437,1.139,1.139,0,0,1-.205-.643,1.1,1.1,0,0,1,.239-.718,2.779,2.779,0,0,1,.711-.581,2.131,2.131,0,0,1-.957-.82,2.462,2.462,0,0,1-.362-1.34,2.4,2.4,0,0,1,.772-1.907,3.277,3.277,0,0,1,2.215-.677,4.929,4.929,0,0,1,.67.048,3.935,3.935,0,0,1,.533.089Zm-5.941,8.736a.885.885,0,0,0,.465.8,2.591,2.591,0,0,0,1.319.28,3.975,3.975,0,0,0,1.955-.376,1.127,1.127,0,0,0,.643-1,.755.755,0,0,0-.356-.7,2.841,2.841,0,0,0-1.3-.2h-1.217a1.741,1.741,0,0,0-1.1.321A1.08,1.08,0,0,0,200.538,31.176Zm.691-6.289a1.528,1.528,0,0,0,.362,1.094,1.4,1.4,0,0,0,1.053.383q1.394,0,1.394-1.49a1.663,1.663,0,0,0-.349-1.135,1.292,1.292,0,0,0-1.045-.4,1.365,1.365,0,0,0-1.06.4A1.677,1.677,0,0,0,201.229,24.887Zm6.418,4.259a1.053,1.053,0,0,1,.26-.766,1,1,0,0,1,.752-.267.984.984,0,0,1,.759.28,1.048,1.048,0,0,1,.26.752,1.089,1.089,0,0,1-.267.772,1.149,1.149,0,0,1-1.5,0A1.094,1.094,0,0,1,207.647,29.146Zm6.959,4.218a3.619,3.619,0,0,1-1.2-.171V31.921a3.7,3.7,0,0,0,.951.123q1.024,0,1.025-1.162V22.44h1.606v8.552a2.369,2.369,0,0,1-.615,1.771A2.4,2.4,0,0,1,214.606,33.363Zm.677-12.927a.9.9,0,0,1,.233-.663.93.93,0,0,1,.676-.232.819.819,0,0,1,.9.9.879.879,0,0,1-.239.649.888.888,0,0,1-.657.233.929.929,0,0,1-.676-.233A.892.892,0,0,1,215.283,20.437Zm7.841,9.7A2.646,2.646,0,0,1,220.9,29.1h-.1q.1.957.1,1.162v3.1h-1.607V22.44h1.3c.036.141.112.478.225,1.012h.083a2.515,2.515,0,0,1,2.255-1.149,2.617,2.617,0,0,1,2.2,1.025,4.613,4.613,0,0,1,.793,2.878,4.611,4.611,0,0,1-.807,2.892A2.639,2.639,0,0,1,223.124,30.137Zm-.39-6.521a1.679,1.679,0,0,0-1.4.561,2.921,2.921,0,0,0-.437,1.791v.239a3.552,3.552,0,0,0,.437,2,1.632,1.632,0,0,0,1.429.615,1.45,1.45,0,0,0,1.285-.684,3.528,3.528,0,0,0,.451-1.948,3.367,3.367,0,0,0-.451-1.921A1.483,1.483,0,0,0,222.734,23.615ZM234.4,22.44v.882l-1.292.239a2.061,2.061,0,0,1,.294.588,2.306,2.306,0,0,1,.117.738,2.262,2.262,0,0,1-.807,1.839,3.376,3.376,0,0,1-2.222.67,3.6,3.6,0,0,1-.656-.055.905.905,0,0,0-.519.752.417.417,0,0,0,.239.39,2.121,2.121,0,0,0,.9.13h1.32a2.932,2.932,0,0,1,1.9.533,1.875,1.875,0,0,1,.649,1.538,2.237,2.237,0,0,1-1.059,1.982,5.578,5.578,0,0,1-3.063.7,4.224,4.224,0,0,1-2.358-.547,1.768,1.768,0,0,1-.813-1.559,1.677,1.677,0,0,1,.437-1.176,2.4,2.4,0,0,1,1.237-.656,1.236,1.236,0,0,1-.533-.437,1.139,1.139,0,0,1-.205-.643,1.1,1.1,0,0,1,.239-.718,2.779,2.779,0,0,1,.711-.581,2.131,2.131,0,0,1-.957-.82,2.462,2.462,0,0,1-.362-1.34,2.4,2.4,0,0,1,.772-1.907,3.277,3.277,0,0,1,2.215-.677,4.929,4.929,0,0,1,.67.048,3.935,3.935,0,0,1,.533.089Zm-5.94,8.736a.885.885,0,0,0,.465.8,2.591,2.591,0,0,0,1.319.28,3.975,3.975,0,0,0,1.955-.376,1.127,1.127,0,0,0,.643-1,.755.755,0,0,0-.356-.7,2.841,2.841,0,0,0-1.3-.2H229.96a1.741,1.741,0,0,0-1.1.321A1.077,1.077,0,0,0,228.456,31.176Zm.69-6.289a1.529,1.529,0,0,0,.363,1.094,1.4,1.4,0,0,0,1.053.383q1.394,0,1.394-1.49a1.663,1.663,0,0,0-.349-1.135,1.292,1.292,0,0,0-1.045-.4,1.363,1.363,0,0,0-1.06.4A1.678,1.678,0,0,0,229.146,24.887Zm6.419,4.259a1.053,1.053,0,0,1,.26-.766,1,1,0,0,1,.752-.267.984.984,0,0,1,.759.28,1.048,1.048,0,0,1,.26.752,1.089,1.089,0,0,1-.267.772,1.149,1.149,0,0,1-1.5,0A1.094,1.094,0,0,1,235.565,29.146Zm6.959,4.218a3.619,3.619,0,0,1-1.2-.171V31.921a3.7,3.7,0,0,0,.95.123q1.026,0,1.026-1.162V22.44H244.9v8.552a2.369,2.369,0,0,1-.615,1.771A2.4,2.4,0,0,1,242.524,33.363Zm.677-12.927a.9.9,0,0,1,.233-.663.93.93,0,0,1,.676-.232.819.819,0,0,1,.9.9.879.879,0,0,1-.239.649.888.888,0,0,1-.657.233.929.929,0,0,1-.676-.233A.892.892,0,0,1,243.2,20.437Zm7.841,9.7a2.65,2.65,0,0,1-2.229-1.032h-.1q.1.957.1,1.162v3.1h-1.606V22.44h1.3c.036.141.112.478.225,1.012h.082a2.518,2.518,0,0,1,2.256-1.149,2.617,2.617,0,0,1,2.2,1.025,4.613,4.613,0,0,1,.792,2.878,4.611,4.611,0,0,1-.806,2.892A2.639,2.639,0,0,1,251.042,30.137Zm-.39-6.521a1.679,1.679,0,0,0-1.4.561,2.92,2.92,0,0,0-.438,1.791v.239a3.551,3.551,0,0,0,.438,2,1.632,1.632,0,0,0,1.429.615,1.45,1.45,0,0,0,1.285-.684,3.528,3.528,0,0,0,.451-1.948,3.367,3.367,0,0,0-.451-1.921A1.483,1.483,0,0,0,250.652,23.615Zm8.579,6.521a3.675,3.675,0,0,1-2.761-1.025,3.925,3.925,0,0,1-.991-2.837,4.286,4.286,0,0,1,.922-2.912,3.19,3.19,0,0,1,2.537-1.06,3.115,3.115,0,0,1,2.365.909,3.473,3.473,0,0,1,.868,2.5v.868h-5.038a2.5,2.5,0,0,0,.6,1.7,2.077,2.077,0,0,0,1.579.588,5.943,5.943,0,0,0,1.244-.123,6.716,6.716,0,0,0,1.244-.424v1.306a4.923,4.923,0,0,1-1.19.4A7.291,7.291,0,0,1,259.231,30.137Zm-.293-6.617a1.625,1.625,0,0,0-1.231.485,2.326,2.326,0,0,0-.547,1.415h3.432A2.082,2.082,0,0,0,260.141,24,1.538,1.538,0,0,0,258.938,23.52Zm11.443-1.08v.882l-1.292.239a2.114,2.114,0,0,1,.294.588,2.334,2.334,0,0,1,.116.738,2.261,2.261,0,0,1-.807,1.839,3.373,3.373,0,0,1-2.221.67,3.6,3.6,0,0,1-.657-.055.905.905,0,0,0-.519.752.419.419,0,0,0,.239.39,2.126,2.126,0,0,0,.9.13h1.319a2.932,2.932,0,0,1,1.9.533,1.876,1.876,0,0,1,.65,1.538,2.236,2.236,0,0,1-1.06,1.982,5.576,5.576,0,0,1-3.062.7,4.23,4.23,0,0,1-2.359-.547,1.768,1.768,0,0,1-.813-1.559,1.681,1.681,0,0,1,.437-1.176,2.4,2.4,0,0,1,1.238-.656,1.239,1.239,0,0,1-.534-.437,1.147,1.147,0,0,1-.2-.643,1.1,1.1,0,0,1,.24-.718,2.744,2.744,0,0,1,.711-.581,2.131,2.131,0,0,1-.957-.82,2.454,2.454,0,0,1-.363-1.34,2.4,2.4,0,0,1,.773-1.907,3.275,3.275,0,0,1,2.215-.677,4.915,4.915,0,0,1,.669.048,3.984,3.984,0,0,1,.534.089Zm-5.941,8.736a.885.885,0,0,0,.465.8,2.6,2.6,0,0,0,1.32.28,3.977,3.977,0,0,0,1.955-.376,1.127,1.127,0,0,0,.642-1,.754.754,0,0,0-.355-.7,2.849,2.849,0,0,0-1.306-.2h-1.217a1.736,1.736,0,0,0-1.1.321A1.078,1.078,0,0,0,264.44,31.176Zm.691-6.289a1.533,1.533,0,0,0,.362,1.094,1.4,1.4,0,0,0,1.053.383q1.4,0,1.394-1.49a1.668,1.668,0,0,0-.348-1.135,1.3,1.3,0,0,0-1.046-.4,1.365,1.365,0,0,0-1.06.4A1.677,1.677,0,0,0,265.131,24.887Zm6.419,4.259a1.049,1.049,0,0,1,.26-.766,1,1,0,0,1,.752-.267.983.983,0,0,1,.758.28,1.048,1.048,0,0,1,.26.752,1.089,1.089,0,0,1-.267.772,1.148,1.148,0,0,1-1.5,0A1.089,1.089,0,0,1,271.55,29.146Zm10.548-.308a3.9,3.9,0,0,0,1.175-.185v1.21a3.1,3.1,0,0,1-.69.191,4.485,4.485,0,0,1-.868.082q-2.283,0-2.283-2.406V23.656H278.4v-.711l1.108-.588.547-1.6h.991V22.44H283.2v1.217h-2.153V27.7a1.157,1.157,0,0,0,.287.861A1.08,1.08,0,0,0,282.1,28.838ZM286.4,30h-1.606V22.44H286.4Zm-1.7-9.563a.9.9,0,0,1,.233-.663.93.93,0,0,1,.676-.232.819.819,0,0,1,.9.9.879.879,0,0,1-.239.649.888.888,0,0,1-.657.233.929.929,0,0,1-.676-.233A.892.892,0,0,1,284.7,20.437Zm7.8,3.22h-1.846V30h-1.613V23.656h-1.244V22.9l1.244-.492V21.92a2.739,2.739,0,0,1,.629-1.982,2.564,2.564,0,0,1,1.921-.649,5.126,5.126,0,0,1,1.668.28l-.424,1.217a3.7,3.7,0,0,0-1.135-.191.928.928,0,0,0-.8.342,1.7,1.7,0,0,0-.247,1.012v.492h1.846Z"/>
    </g>
    <path id="Vector_1_" data-name="Vector (1)" d="M5.95.432a5,5,0,1,0,4.983,5A4.986,4.986,0,0,0,5.95.432Z" transform="translate(513.033 527.568)" fill="#fff"/>
  </g>
</svg>
